<?xml version="1.0" encoding="utf-8"?>
<!-- Generator: Adobe Illustrator 16.0.0, SVG Export Plug-In . SVG Version: 6.00 Build 0)  -->
<!DOCTYPE svg PUBLIC "-//W3C//DTD SVG 1.1//EN" "http://www.w3.org/Graphics/SVG/1.1/DTD/svg11.dtd">
<svg version="1.1" id="Layer_1" xmlns="http://www.w3.org/2000/svg" xmlns:xlink="http://www.w3.org/1999/xlink" x="0px" y="0px"
	 width="80px" height="80px" viewBox="0 0 80 80" enable-background="new 0 0 80 80" xml:space="preserve">
<g>
	<path fill="none" stroke="#202020" stroke-width="3" stroke-miterlimit="10" d="M63.985,69.627
		c-1.471-0.932-3.261-1.689-5.427-2.104c-10.288-1.965-10.318-5.16-10.318-7.221v-1.215c2.466-2.205,4.363-5.371,5.383-9.074
		c0.021,0,0.035,0.008,0.058,0.008c3.143,0,3.874-6.525,3.874-7.506c0-0.975,0.085-4.878-3.096-4.878
		c6.837-18.574-11.283-26.023-24.89-16.51c-5.612,0-6.063,8.255-4.002,16.51c-3.175,0-3.051,3.904-3.051,4.878
		c0,0.98,0.73,7.506,3.877,7.506c0.005,0,0.01-0.004,0.015-0.004c1.017,3.689,2.903,6.842,5.353,9.045v1.24
		c0,2.061,0,5.352-10.317,7.221c-2.182,0.395-3.976,1.146-5.452,2.078"/>
	<circle fill="none" stroke="#202020" stroke-width="3" stroke-miterlimit="10" cx="40" cy="39.937" r="38.17"/>
</g>
</svg>
