<?xml version="1.0" encoding="utf-8"?>
<!-- Generator: Adobe Illustrator 16.0.0, SVG Export Plug-In . SVG Version: 6.00 Build 0)  -->
<!DOCTYPE svg PUBLIC "-//W3C//DTD SVG 1.1//EN" "http://www.w3.org/Graphics/SVG/1.1/DTD/svg11.dtd">
<svg version="1.1" id="Layer_1" xmlns="http://www.w3.org/2000/svg" xmlns:xlink="http://www.w3.org/1999/xlink" x="0px" y="0px"
	 width="170px" height="35px" viewBox="0 0 170 35" enable-background="new 0 0 170 35" xml:space="preserve">
<g>
	<path fill="#AAAAAA" d="M125.997,22.84c-0.354,0-0.609-0.223-0.609-0.609v-9.174h0.832c0.385,0,0.643,0.161,0.643,0.61v9.207
		h-0.865V22.84L125.997,22.84z M125.899,11.036c-0.385,0-0.609-0.16-0.609-0.545V9.432h1.027c0.352,0,0.641,0.128,0.641,0.577v1.026
		H125.899L125.899,11.036L125.899,11.036L125.899,11.036z"/>
	<path fill="#AAAAAA" d="M67.004,23.066c-3.817,0-6.672-3.018-6.672-6.866c0-3.785,2.823-6.897,6.705-6.897
		c2.406,0,3.849,0.866,5.165,2.117c0,0-0.289,0.321-0.577,0.609c-0.289,0.321-0.674,0.257-0.931,0.032
		c-0.994-0.834-2.149-1.38-3.689-1.38c-2.951,0-5.132,2.374-5.132,5.455c0,3.078,2.213,5.515,5.132,5.515
		c1.572,0,2.663-0.512,3.753-1.41c0.289-0.258,0.737-0.289,1.058,0.031c0.353,0.32,0.45,0.449,0.45,0.449
		C70.917,22.135,69.41,23.066,67.004,23.066L67.004,23.066L67.004,23.066L67.004,23.066z"/>
	<path fill="#AAAAAA" d="M96.261,12.8c2.244,0,3.656,1.507,3.656,3.945v6.063h-0.771c-0.576,0-0.672-0.32-0.672-0.736v-5.006
		c0-1.892-0.963-2.951-2.535-2.951c-1.475,0-2.727,1.091-2.727,3.047v5.646h-0.801c-0.354,0-0.643-0.16-0.643-0.641v-5.134
		c0-1.827-0.963-2.918-2.533-2.918c-1.573,0-2.728,1.284-2.728,3.08v4.973c0,0.514-0.193,0.609-0.609,0.609h-0.834V12.96h0.802
		c0.48,0,0.674,0.289,0.674,0.674v0.963c0.643-0.963,1.508-1.861,3.176-1.861c1.604,0,2.631,0.866,3.143,1.957
		C93.532,13.698,94.56,12.8,96.261,12.8L96.261,12.8L96.261,12.8L96.261,12.8z"/>
	<path fill="#AAAAAA" d="M107.552,14.115c-1.828,0-3.561,1.508-3.561,3.786c0,2.308,1.732,3.816,3.561,3.816
		c1.893,0,3.463-1.41,3.463-3.784C111.015,15.591,109.411,14.115,107.552,14.115L107.552,14.115L107.552,14.115L107.552,14.115z
		 M107.839,23.033c-1.828,0-2.982-0.994-3.752-2.086v4.908h-0.834c-0.385,0-0.609-0.191-0.609-0.641v-12.19h0.705
		c0.48,0,0.738,0.225,0.738,0.706v1.284c0.801-1.188,1.957-2.182,3.752-2.182c2.344,0,4.686,1.86,4.686,5.101
		C112.524,21.141,110.214,23.033,107.839,23.033L107.839,23.033L107.839,23.033L107.839,23.033z"/>
	<path fill="#AAAAAA" d="M134.079,14.115c-1.859,0-3.398,1.284-3.398,3.336c0,2.021,1.572,3.367,3.398,3.367
		c1.861,0,3.594-1.314,3.594-3.334C137.673,15.399,135.94,14.115,134.079,14.115L134.079,14.115L134.079,14.115L134.079,14.115z
		 M134.112,25.889c-1.637,0-3.145-0.451-4.459-1.381c0,0,0.096-0.191,0.354-0.609c0.256-0.416,0.576-0.32,0.994-0.064
		c0.93,0.516,1.955,0.803,3.078,0.803c2.148,0,3.561-1.188,3.561-3.496v-1.156c-0.865,1.125-2.053,2.055-3.848,2.055
		c-2.344,0-4.621-1.732-4.621-4.62c0-2.887,2.277-4.651,4.621-4.651c1.826,0,3.045,0.898,3.816,1.989v-1.091
		c0-0.417,0.385-0.674,0.674-0.674h0.801v8.117C139.083,24.285,137.128,25.889,134.112,25.889L134.112,25.889L134.112,25.889
		L134.112,25.889z"/>
	<path fill="#AAAAAA" d="M143.351,22.84h-1.477v-9.815h0.803c0.352,0,0.674,0.192,0.674,0.609v1.123
		c0.641-1.059,1.668-1.925,3.367-1.925c2.375,0,3.754,1.604,3.754,3.913v6.094h-0.898c-0.418,0-0.576-0.191-0.576-0.609v-5.132
		c0-1.827-0.996-2.951-2.729-2.951c-1.699,0-2.951,1.219-2.951,3.08L143.351,22.84L143.351,22.84L143.351,22.84L143.351,22.84z"/>
	<path fill="#AAAAAA" d="M118.618,12.896c-1.412,0-2.504,0.321-3.561,0.802c0,0,0.16,0.449,0.289,0.77
		c0.127,0.321,0.512,0.257,0.705,0.192c0.738-0.289,1.508-0.481,2.438-0.481c1.828,0,2.92,0.898,2.92,2.663v2.373
		c0,1.572-1.443,2.662-3.273,2.662c-1.314,0-2.469-0.705-2.469-1.955c0-1.252,1.027-1.958,2.855-1.958h1.09
		c0.449,0,0.643-0.192,0.643-0.609v-0.48c-0.449,0-1.283,0-1.861,0c-2.471,0-4.203,0.994-4.203,3.079c0,2.055,1.83,3.08,3.658,3.08
		c1.732,0,2.854-0.803,3.561-1.701v0.898c0,0.387,0.16,0.578,0.609,0.578h0.801V16.81C122.788,14.244,121.28,12.896,118.618,12.896
		L118.618,12.896L118.618,12.896L118.618,12.896z"/>
	<path fill="#AAAAAA" d="M78.232,12.896c-1.412,0-2.471,0.321-3.563,0.802c0,0,0.161,0.449,0.29,0.77
		c0.127,0.321,0.513,0.257,0.705,0.192c0.738-0.289,1.508-0.481,2.438-0.481c1.828,0,2.919,0.898,2.919,2.663v2.373
		c0,1.572-1.444,2.662-3.272,2.662c-1.315,0-2.469-0.705-2.469-1.955c0-1.252,1.025-1.958,2.854-1.958h1.09
		c0.45,0,0.642-0.192,0.642-0.609v-0.48c-0.448,0-1.283,0-1.86,0c-2.469,0-4.202,0.994-4.202,3.079c0,2.055,1.83,3.08,3.657,3.08
		c1.733,0,2.855-0.803,3.561-1.701v0.898c0,0.387,0.159,0.578,0.609,0.578h0.803V16.81C82.402,14.244,80.894,12.896,78.232,12.896
		L78.232,12.896L78.232,12.896L78.232,12.896z"/>
	<path fill="#AAAAAA" d="M166.991,17.933c0.385-0.29,0.514-0.642,0.514-0.963c0-0.352,0,0.321,0-0.16
		c0-0.353-0.193-0.642-0.514-0.866c-0.256-0.192-9.783-6.833-9.783-6.833v1.411c0,0.481,0.258,0.642,0.609,0.898
		c0.48,0.353,7.924,5.518,7.924,5.518s-7.539,5.229-7.988,5.516c-0.48,0.322-0.514,0.514-0.514,0.932v1.314
		C157.177,24.734,166.544,18.254,166.991,17.933L166.991,17.933L166.991,17.933L166.991,17.933z"/>
	<path fill="#AAAAAA" d="M157.177,13.827v0.963c0,0,2.951,2.053,3.527,2.438c0.48,0.321,0.898,0.289,1.379-0.064
		c0.32-0.224,0.611-0.417,0.611-0.417s-4.299-2.983-4.748-3.272C157.593,13.217,157.177,13.377,157.177,13.827L157.177,13.827
		L157.177,13.827L157.177,13.827z"/>
	<path fill="#AAAAAA" d="M21.71,23.066c-2.855,0-5.036-2.344-5.036-5.102c0-2.79,2.149-5.132,5.036-5.132
		c1.86,0,3.015,0.77,3.914,1.732c0,0-0.289,0.32-0.545,0.577c-0.289,0.289-0.577,0.257-0.962-0.064
		c-0.674-0.545-1.412-0.962-2.438-0.962c-1.989,0-3.497,1.701-3.497,3.818c0,2.149,1.572,3.817,3.593,3.817
		c1.026,0,1.86-0.418,2.535-1.027c0.16-0.129,0.577-0.352,0.898-0.031c0.32,0.32,0.481,0.449,0.481,0.449
		C24.726,22.264,23.57,23.066,21.71,23.066L21.71,23.066L21.71,23.066L21.71,23.066z"/>
	<path fill="#AAAAAA" d="M35.568,22.84c-0.353,0-0.609-0.223-0.609-0.609v-9.174h0.834c0.385,0,0.642,0.161,0.642,0.61v9.207h-0.867
		V22.84L35.568,22.84L35.568,22.84z M35.504,11.036c-0.385,0-0.61-0.16-0.61-0.545V9.432h1.027c0.353,0,0.642,0.224,0.642,0.673
		v0.93H35.504L35.504,11.036L35.504,11.036L35.504,11.036z"/>
	<path fill="#AAAAAA" d="M46.41,13.538c0.16-0.385,0.449-0.513,0.802-0.513h0.995c0,0-3.914,8.983-4.074,9.334
		c-0.16,0.354-0.384,0.48-0.738,0.48c-0.257,0,0,0-0.192,0c-0.385,0-0.609-0.063-0.77-0.447c-0.16-0.354-4.074-9.4-4.074-9.4h1.026
		c0.385,0,0.674,0.161,0.834,0.545c0.129,0.385,3.079,7.538,3.079,7.538S46.25,13.923,46.41,13.538L46.41,13.538L46.41,13.538
		L46.41,13.538z"/>
	<path fill="#AAAAAA" d="M56.771,18.543c1.155,0,1.508-0.739,1.443-1.604c-0.224-2.374-1.957-4.139-4.491-4.139
		c-2.727,0-4.715,2.277-4.715,5.133c0,3.047,2.213,5.133,4.908,5.133c1.86,0,3.047-0.738,4.042-1.83c0,0-0.225-0.191-0.481-0.418
		c-0.321-0.256-0.642-0.191-0.834,0c-0.706,0.643-1.572,0.996-2.694,0.996c-1.733,0-3.24-1.188-3.465-3.336
		c0,0-0.032-0.225-0.032-0.514c0-0.321,0.032-0.545,0.032-0.545c0.192-1.925,1.476-3.336,3.175-3.336
		c1.764,0,2.919,1.219,3.047,2.823c0.064,0.353-0.063,0.513-0.321,0.513h-3.945c-0.385,0-0.609,0.224-0.609,0.61v0.545
		C53.853,18.543,56.355,18.543,56.771,18.543L56.771,18.543L56.771,18.543L56.771,18.543z"/>
	<path fill="#AAAAAA" d="M10.194,9.881C10.002,9.496,9.81,9.4,9.424,9.4H9.04c-0.289,0-0.545,0.16-0.706,0.449
		C8.206,10.138,2.496,22.84,2.496,22.84h0.93c0.417,0,0.673-0.191,0.898-0.609c0.193-0.416,1.315-2.887,1.315-2.887h4.427
		c0.481,0,0.77-0.289,0.77-0.705v-0.642H6.217l3.047-6.833c0,0,4.748,10.777,4.94,11.195s0.641,0.48,0.994,0.48h0.834
		C16.032,22.84,10.387,10.298,10.194,9.881L10.194,9.881L10.194,9.881L10.194,9.881z"/>
	<path fill="#AAAAAA" d="M29.313,20.049c0,1.188,0.674,1.637,1.636,1.637c0.353,0,0.609-0.064,0.962-0.16
		c0.321-0.096,0.707-0.033,0.707,0.449c0,0.354-0.032,0.643-0.032,0.643c-0.514,0.256-1.316,0.416-1.989,0.416
		c-1.572,0-2.759-0.77-2.759-2.76V9.464h0.707c0.417,0,0.737,0.224,0.737,0.673v2.919h2.342c0.353,0,0.77,0.193,0.77,0.674v0.609
		h-3.112L29.313,20.049L29.313,20.049L29.313,20.049L29.313,20.049z"/>
</g>
</svg>
