<svg xmlns="http://www.w3.org/2000/svg" width="170" height="35" viewBox="0 0 170 35"><style>.a{fill:#AAA;}</style><path d="M32.3 5h0.7c-0.8 2.1-1.4 4.3-1.7 6.5 -0.3 2.1-0.4 4.3-0.4 6.4 0 1.5 0.1 3 0.3 4.5 0.4 2.6 1 5.2 2.1 7.6h-1c-1.3-0.1-2.6-0.6-3.5-1.5 -1.2-1-1.9-2.5-2-4.1V10.6c0.1-1.6 0.8-3.1 2-4.1C29.7 5.6 31 5.1 32.3 5L32.3 5z" class="a"/><path d="M84.6 6.7c0.2 0.5 0.4 1 0.6 1.6 1.6 4.3 3.1 8.6 4.7 12.8 0 0 0.1-0.1 0.1-0.1 1.8-4.4 3.7-8.9 5.5-13.3 1.1 0 2.2 0 3.3 0 -3 7.1-6 14.3-9 21.4 0 0.1-0.1 0-0.1 0 -1.6-4.3-3.1-8.7-4.7-13 -0.2-0.4-0.3-0.8-0.4-1.1 -1.8 4.8-3.6 9.5-5.4 14.3 -2.4-6.1-4.9-12.2-7.3-18.3 -0.4-1.1-0.9-2.1-1.3-3.2 1.1 0 2.2 0 3.3 0 1.5 4 3.1 8 4.7 12 0.2 0.5 0.4 1 0.6 1.5C81 16.3 82.8 11.5 84.6 6.7L84.6 6.7z" class="a"/><path d="M37.5 5h8.7c1.4 0.1 2.8 0.7 3.8 1.6 1.2 1.1 1.8 2.7 1.8 4.2 0 4.1 0 8.2 0 12.4 0 0.6 0 1.3-0.1 1.9 -0.3 1.6-1.3 3.1-2.6 4 -0.9 0.6-1.9 0.9-2.9 0.9h-8.3l0 0c-1.7-3.5-2.6-7.3-2.8-11.2 -0.1-2 0-4 0.2-6C35.6 10.1 36.4 7.5 37.5 5L37.5 5zM40.9 6.6c-0.4 0.1-0.6 0.5-0.8 0.8 -1.3 1.8-2.4 3.9-2.9 6.2 -0.4 1.7-0.5 3.5-0.4 5.3 0.1 1.8 0.5 3.6 1.2 5.3 0.6 1.4 1.4 2.8 2.4 4 0.2 0.3 0.7 0.5 1.1 0.3 0.3-0.1 0.6-0.4 0.7-0.7 0.1-0.3 0-0.6-0.2-0.9 -1.1-1.5-2-3.1-2.6-4.8 -0.5-1.5-0.7-3.2-0.7-4.8 0-1.3 0.2-2.7 0.5-4 0.5-1.9 1.5-3.6 2.6-5.1 0.2-0.2 0.3-0.5 0.3-0.7 0-0.4-0.3-0.6-0.6-0.8C41.4 6.6 41.1 6.6 40.9 6.6L40.9 6.6zM44.9 9.7c-0.1 0.1-0.2 0.2-0.3 0.3 -0.6 0.8-1.1 1.7-1.6 2.6 -0.4 0.9-0.7 2-0.8 3 -0.2 1.6-0.1 3.2 0.2 4.7 0.4 1.6 1.2 3.1 2.2 4.4 0.1 0.1 0.3 0.3 0.5 0.3 0.3 0 0.6-0.2 0.8-0.5 0.1-0.3-0.1-0.5-0.2-0.7 -0.6-0.8-1.1-1.7-1.5-2.6 -0.3-0.8-0.5-1.7-0.6-2.6 -0.2-1.8 0-3.6 0.7-5.3 0.4-0.9 0.9-1.7 1.5-2.5 0.1-0.2 0.2-0.4 0.1-0.6C45.6 9.8 45.2 9.6 44.9 9.7L44.9 9.7z" class="a"/><path d="M64.7 6.5c0 0 0.1-0.1 0.1-0.1 3.2 7.2 6.4 14.3 9.6 21.5 -1.1 0-2.2 0-3.3 0 -0.7-1.6-1.4-3.3-2.1-4.9 -2.9 0-5.8 0-8.7 0 -0.7 1.6-1.5 3.3-2.2 4.9 -1.1 0-2.2 0-3.3 0C58.1 20.8 61.4 13.6 64.7 6.5L64.7 6.5zM64.7 13.3c-1 2.3-2.1 4.5-3.1 6.8 2 0 4.1 0 6.1 0 -1-2.2-1.9-4.4-2.9-6.6C64.8 13.4 64.7 13.3 64.7 13.3L64.7 13.3z" class="a"/><path d="M144.3 14.8c1.1-0.2 2.3 0.1 3.2 0.6 0 0.1 0 0.2-0.1 0.3 -0.4 0.8-0.8 1.6-1.2 2.4 -0.4-0.3-0.8-0.5-1.2-0.6 -0.6-0.1-1.2 0-1.7 0.3 -0.4 0.3-0.7 0.7-0.9 1.2 -0.4 1-0.3 2-0.3 3.1 0 1.9 0 3.8 0 5.7 -1 0-2 0-2.9 0 0-4.3 0-8.5 0-12.8 1 0 2 0 2.9 0 0 0.4 0 0.7 0 1.1 0.2-0.1 0.3-0.3 0.5-0.4C143.2 15.3 143.7 15 144.3 14.8L144.3 14.8z" class="a"/><path d="M99.4 15.4c1.1-0.5 2.4-0.7 3.6-0.6 0.9 0.1 1.9 0.4 2.7 0.9 0.9 0.6 1.7 1.5 2.1 2.5 0.5 1.3 0.6 2.6 0.6 4 -2.5 0-5 0-7.5 0 -0.5 0-1.1 0-1.6 0 0.1 1 0.5 2.1 1.3 2.8 0.8 0.6 1.8 0.7 2.7 0.6 0.5-0.1 1-0.3 1.3-0.7 0.5-0.5 1-1.1 1.4-1.7 0.8 0.5 1.7 0.9 2.5 1.4 -0.5 0.8-1.1 1.6-1.8 2.3 -0.8 0.7-1.8 1.2-2.8 1.3 -1.3 0.2-2.7 0.1-3.9-0.3 -1.6-0.6-2.8-2-3.3-3.5 -0.4-1.2-0.5-2.6-0.4-3.8 0.1-1 0.4-2 0.9-2.9C97.7 16.6 98.5 15.9 99.4 15.4L99.4 15.4zM100.7 17.9c-0.7 0.4-1.1 1.1-1.3 1.9 2 0 3.9 0 5.9 0 -0.2-0.7-0.5-1.4-1.1-1.8 -0.5-0.4-1.2-0.5-1.8-0.5C101.8 17.4 101.2 17.6 100.7 17.9L100.7 17.9z" class="a"/><path d="M110.6 9.7c0-1.3 0-2.6 0-3.9 1 0 2 0 2.9 0 0 3.6 0 7.2 0 10.8 0.6-0.7 1.4-1.2 2.3-1.5 1-0.4 2.1-0.4 3.2-0.1 1.1 0.3 2.1 0.9 2.8 1.8 0.7 0.8 1.2 1.7 1.4 2.7 0.3 1.3 0.3 2.6 0.1 3.8 -0.4 1.7-1.4 3.3-2.9 4.2 -1.2 0.7-2.7 0.9-4 0.7 -1.1-0.2-2.1-0.8-2.9-1.6 0 0.4 0 0.9 0 1.3 -1 0-2 0-3 0C110.6 21.8 110.6 15.7 110.6 9.7L110.6 9.7zM116.5 17.5c-0.6 0.1-1.3 0.3-1.7 0.8 -0.8 0.6-1.2 1.6-1.3 2.5 -0.1 1 0 2 0.4 2.9 0.4 0.8 1.1 1.5 2 1.8 1 0.3 2.1 0.2 2.9-0.4 0.9-0.6 1.5-1.7 1.7-2.8 0.1-0.9 0-1.9-0.4-2.8 -0.4-0.8-1-1.5-1.8-1.9C117.7 17.4 117.1 17.4 116.5 17.5L116.5 17.5z" class="a"/><path d="M130.2 14.8c1.2-0.1 2.4 0 3.5 0.4 1 0.4 1.8 1.1 2.4 1.9 0.5 0.8 0.9 1.7 1 2.6 0.2 0.8 0.2 1.6 0.1 2.5 -1.4 0-2.8 0-4.1 0 -1.7 0-3.3 0-5 0 0.1 1 0.4 1.9 1.1 2.6 0.9 0.8 2.2 1 3.3 0.6 0.8-0.2 1.3-0.9 1.8-1.5 0.2-0.3 0.4-0.5 0.6-0.8 0.8 0.5 1.7 0.9 2.5 1.4 -0.2 0.4-0.4 0.7-0.7 1.1 -0.7 0.9-1.6 1.8-2.7 2.2 -1.1 0.4-2.2 0.5-3.4 0.4 -1-0.1-1.9-0.4-2.8-0.9 -1-0.6-1.7-1.5-2.2-2.5 -0.4-1-0.6-2-0.6-3.1 0-1 0.1-2.1 0.5-3 0.4-1 1-1.9 1.8-2.6C128 15.4 129.1 14.9 130.2 14.8L130.2 14.8zM129.5 17.9c-0.7 0.4-1.1 1.1-1.3 1.9 2 0 3.9 0 5.9 0 -0.2-0.7-0.5-1.4-1.2-1.9 -0.5-0.4-1.2-0.5-1.8-0.5C130.6 17.4 130 17.6 129.5 17.9L129.5 17.9z" class="a"/></svg>