<svg xmlns="http://www.w3.org/2000/svg" width="170" height="35" viewBox="0 0 170 35"><path d="M2.7 10.6c-0.3-0.2-0.7-0.1-0.9 0.1 0 0 0 0 0 0 -0.1 0.1-0.1 0.2-0.1 0.4v10l7.4-6L2.7 10.6M18.2 10.8c-0.2-0.3-0.6-0.4-0.9-0.2L1.8 21.4c0.1 0.2 0.3 0.3 0.5 0.3h15.3c0.3 0 0.6-0.3 0.6-0.6v-10C18.3 11 18.2 10.9 18.2 10.8M151.2 12.6h-1.9v-2.5c0-0.1 0-0.1-0.2-0.2 -0.1-0.2-0.3-0.2-0.4-0.1l-1 0.7c-0.4 0.2-0.5 0.5-0.5 0.9v1.3h-0.7c-0.3 0-0.6 0.2-0.6 0.6V13.7c0 0.3 0.3 0.6 0.6 0.6h0.7v5c0 2 1 2.6 2.6 2.6 0.7 0 1.6-0.3 1.6-0.3s0.2-0.1 0.2-0.4c0-0.1-0.2-0.9-0.2-0.9 0-0.2-0.2-0.3-0.4-0.3 -0.1 0-0.3 0.1-0.7 0.1 -0.6 0-1.1-0.3-1.1-1.1v-4.6h1.9c0.3 0 0.5-0.2 0.5-0.6v-0.6C151.7 12.8 151.5 12.6 151.2 12.6M78.8 17.2c0 1.7-1.2 2.9-2.6 2.9 -1.4 0-2.4-1.1-2.4-2.9v0c0-1.7 1-2.9 2.4-2.9 1.3 0 2.6 1.2 2.6 2.9V17.2zM81.4 20.3c-0.3 0-0.5-0.2-0.5-0.4v-6.8c0-0.3-0.2-0.6-0.5-0.6h-0.9c-0.3 0-0.5 0.2-0.5 0.6v0.9c-0.7-0.9-1.5-1.5-3.1-1.5 -2.1 0-4.1 1.7-4.1 4.7v0c0 3 2 4.7 4.1 4.7 1.6 0 2.6-0.7 3.1-1.5 0.2 0.8 1 1.4 1.9 1.4h0.5c0.2 0 0.4-0.2 0.4-0.4v-0.7C81.8 20.5 81.6 20.3 81.4 20.3M42.4 17.2c0 1.7-1.2 2.9-2.6 2.9 -1.4 0-2.4-1.1-2.4-2.9v0c0-1.7 1.1-2.9 2.4-2.9s2.6 1.2 2.6 2.9V17.2zM45 20.3c-0.2 0-0.4-0.2-0.4-0.4v-6.8c0-0.3-0.2-0.6-0.5-0.6h-0.9c-0.3 0-0.5 0.2-0.5 0.6v0.9c-0.7-0.9-1.6-1.5-3.1-1.5 -2.1 0-4.1 1.7-4.1 4.7v0c0 3 2 4.7 4.1 4.7 1.6 0 2.6-0.7 3.1-1.5 0.2 0.8 1 1.4 1.9 1.4h0.5c0.2 0 0.4-0.2 0.4-0.4v-0.7C45.4 20.5 45.2 20.3 45 20.3M68.7 17.2c0 1.7-1.2 2.9-2.6 2.9s-2.4-1.1-2.4-2.9v0c0-1.7 1.1-2.9 2.4-2.9s2.6 1.2 2.6 2.9V17.2zM66.6 12.5c-1.5 0-2.4 0.6-3 1.5v-0.9c0-0.3-0.3-0.6-0.6-0.6h-0.9c-0.3 0-0.5 0.2-0.5 0.6v11.8c0 0.3 0.2 0.6 0.5 0.6h0.9c0.3 0 0.6-0.2 0.6-0.6v-4.6c0.6 0.8 1.6 1.5 3 1.5 2.1 0 4.1-1.7 4.1-4.7v0C70.8 14.1 68.7 12.5 66.6 12.5M121 9.7h-0.9c-0.2 0-0.3 0.1-0.4 0.2l-3.9 5.3 -3.9-5.3c-0.1-0.1-0.3-0.2-0.5-0.2h-0.9c-0.3 0-0.5 0.3-0.5 0.6v10.9c0 0.3 0.2 0.6 0.5 0.6h0.9c0.3 0 0.5-0.2 0.5-0.6V13.6l3.5 4.4v0c0.1 0.1 0.2 0.1 0.3 0.1 0.1 0 0.2-0.1 0.2-0.1l0.1 0v0l3.4-4.4v7.6c0 0.3 0.2 0.6 0.5 0.6h0.9c0.3 0 0.5-0.2 0.5-0.6V10.2C121.6 9.9 121.4 9.7 121 9.7M159.6 17.2v0c0 1.6-1.1 2.8-2.7 2.9 -1.6 0-2.6-1.3-2.6-2.9v-0.1c0-1.6 1-2.8 2.6-2.9 1.6 0 2.7 1.3 2.7 2.9V17.2zM156.9 12.5c-2.7 0-4.7 2.1-4.7 4.7v0c0 2.6 2 4.7 4.7 4.7 2.9 0 4.7-2.1 4.7-4.7v0C161.7 14.6 159.8 12.5 156.9 12.5M130.1 17.2v0c0 1.6-1 2.8-2.6 2.9 -1.8 0-2.8-1.3-2.8-2.9v-0.1c0-1.6 1-2.8 2.8-2.9 1.6 0 2.6 1.3 2.6 2.9V17.2zM127.6 12.5c-2.9 0-5 2.1-5 4.7v0c0 2.6 2.1 4.7 5 4.7 2.6 0 4.7-2.1 4.7-4.7v0C132.3 14.6 130.2 12.5 127.6 12.5M168.1 12.6c0 0-0.1 0-0.1 0v0c-0.2 0-0.5-0.1-0.7-0.1 -1 0-1.9 0.6-2.4 1.5v-0.9c0-0.3-0.2-0.6-0.5-0.6h-0.9c-0.3 0-0.5 0.2-0.5 0.6v8c0 0.3 0.2 0.6 0.5 0.6h0.9c0.3 0 0.5-0.2 0.5-0.6v-3.4c0-2.7 1.5-3.2 2.3-3.2 0.2 0 0.4 0 0.5 0.1 0 0 0.1 0 0.1 0 0.1 0 0.3-0.1 0.3-0.3l0.2-1.3v-0.1C168.3 12.8 168.1 12.6 168.1 12.6M101.4 12.5c-1.4 0-2.2 0.7-2.8 1.5v-0.9c0-0.3-0.2-0.6-0.5-0.6h-0.9c-0.3 0-0.5 0.2-0.5 0.6v8c0 0.3 0.2 0.6 0.5 0.6h0.9c0.3 0 0.5-0.2 0.5-0.6v-4.8c0-1.1 0.9-2 2-2 1 0 1.9 0.9 1.9 2v4.9c0 0.3 0.2 0.6 0.5 0.6h0.9c0.3 0 0.5-0.2 0.5-0.6v-5.2C104.6 13.8 103.4 12.5 101.4 12.5M138.2 12.5c-1.5 0-2.3 0.7-2.8 1.5v-0.9c0-0.3-0.2-0.6-0.6-0.6h-0.9c-0.4 0-0.5 0.2-0.5 0.6v8c0 0.3 0.2 0.6 0.5 0.6h0.9c0.4 0 0.6-0.2 0.6-0.6v-4.8c0-1.1 0.9-2 1.9-2 1.1 0 2 0.9 2 2v4.9c0 0.3 0.2 0.6 0.5 0.6h0.9c0.3 0 0.5-0.2 0.5-0.6v-5.2C141.4 13.8 140.1 12.5 138.2 12.5M92.9 17.2c0 1.7-1.2 2.9-2.5 2.9 -1.4 0-2.5-1.1-2.5-2.9v0c0-1.7 1.1-2.9 2.5-2.9 1.3 0 2.5 1.2 2.5 2.9V17.2zM94.6 12.6h-0.9c-0.4 0-0.6 0.2-0.6 0.6v0.9c-0.6-0.9-1.6-1.5-3-1.5 -2.1 0-4.1 1.7-4.1 4.7v0c0 3 2 4.7 4.1 4.7 1.6 0 2.4-0.7 3-1.5v0 0.8c0 1.6-1.1 3-2.8 3 -1 0-2-0.5-2.5-1.3 -0.2-0.3-0.5-0.3-0.7-0.2l-0.5 0.3c-0.2 0.2-0.3 0.5-0.2 0.8 0.8 1.3 2.2 2.1 3.9 2.1 3 0 4.8-2.1 4.8-4.7v-8C95.1 12.8 94.9 12.6 94.6 12.6M30.8 11.6c0.9 0 1.7 0.3 2.5 0.8 0.1 0.1 0.2 0.1 0.3 0.1s0.2-0.1 0.4-0.2l0.7-0.7c0.1-0.1 0.2-0.3 0.2-0.4 0-0.1-0.1-0.3-0.2-0.4 -1.1-0.9-2.4-1.3-3.8-1.3 -3.4 0-6.1 2.8-6.1 6.2 0 3.4 2.8 6.1 6.1 6.1 1.4 0 2.7-0.5 3.8-1.3 0.2-0.1 0.2-0.2 0.2-0.4 0-0.2-0.1-0.3-0.2-0.4l-0.7-0.7c-0.2-0.1-0.2-0.2-0.4-0.2s-0.2 0-0.3 0.1c-0.8 0.5-1.6 0.8-2.5 0.8 -2.3 0-4.1-1.8-4.1-4.1C26.8 13.4 28.6 11.6 30.8 11.6M144.3 12.6h-1c-0.2 0-0.5 0.2-0.5 0.6v8c0 0.3 0.2 0.6 0.5 0.6h1c0.2 0 0.5-0.2 0.5-0.6v-8C144.9 12.8 144.5 12.6 144.3 12.6M143.8 9.2c-0.6 0-1.2 0.1-1.2 0.8v0.6c0 0.6 0.6 0.8 1.2 0.8 0.6 0 1.2-0.2 1.2-0.8V10C145 9.4 144.5 9.2 143.8 9.2M56.9 12.5c-1.3 0-2.3 0.6-3 1.5 -0.5-0.9-1.4-1.5-2.7-1.5s-2.1 0.7-2.7 1.5v-0.9c0-0.3-0.2-0.6-0.5-0.6h-0.9c-0.3 0-0.5 0.2-0.5 0.6v8c0 0.3 0.2 0.6 0.5 0.6h0.9c0.3 0 0.5-0.2 0.5-0.6v-4.6c0-1.4 0.8-2.2 1.9-2.2s1.8 0.8 1.8 2.2v4.6c0 0.3 0.3 0.6 0.6 0.6h0.9c0.3 0 0.5-0.2 0.5-0.6v-4.6c0-1.4 0.8-2.2 1.9-2.2s1.8 0.8 1.8 2.2v4.6c0 0.3 0.2 0.6 0.5 0.6h0.9c0.3 0 0.5-0.2 0.5-0.6v-5.3C60 13.7 58.9 12.5 56.9 12.5M84.2 12.6h-0.9c-0.2 0-0.5 0.2-0.5 0.6v8c0 0.3 0.3 0.6 0.5 0.6h0.9c0.3 0 0.6-0.2 0.6-0.6v-8C84.8 12.8 84.5 12.6 84.2 12.6M83.8 9.2c-0.6 0-1.2 0.1-1.2 0.8v0.6c0 0.6 0.5 0.8 1.2 0.8 0.7 0 1.2-0.2 1.2-0.8V10C84.9 9.4 84.5 9.2 83.8 9.2" fill="#AAA"/></svg>