<?xml version="1.0" encoding="utf-8"?>
<!-- Generator: Adobe Illustrator 16.0.0, SVG Export Plug-In . SVG Version: 6.00 Build 0)  -->
<!DOCTYPE svg PUBLIC "-//W3C//DTD SVG 1.1//EN" "http://www.w3.org/Graphics/SVG/1.1/DTD/svg11.dtd">
<svg version="1.1" id="Layer_1" xmlns="http://www.w3.org/2000/svg" xmlns:xlink="http://www.w3.org/1999/xlink" x="0px" y="0px"
	 width="170px" height="35px" viewBox="0 0 170 35" enable-background="new 0 0 170 35" xml:space="preserve">
<g>
	<g>
		<path fill="#AAAAAA" d="M141.476,14.39c1.955,0,3.023,1.432,3.023,3.238c0,0.201-0.038,0.627-0.038,0.627h-4.71
			c0.134,1.207,1.017,1.834,2.047,1.834c1.096,0,1.913-0.762,1.913-0.762l0.709,1.178c0,0-1.043,1.029-2.743,1.029
			c-2.26,0-3.665-1.631-3.665-3.573C138.012,15.861,139.43,14.39,141.476,14.39z M142.761,17.08
			c-0.027-0.816-0.588-1.378-1.285-1.378c-0.867,0-1.483,0.523-1.671,1.378H142.761z"/>
		<path fill="#AAAAAA" d="M77.32,14.39c1.953,0,3.024,1.432,3.024,3.238c0,0.201-0.041,0.627-0.041,0.627h-4.708
			c0.133,1.207,1.016,1.834,2.046,1.834c1.096,0,1.914-0.762,1.914-0.762l0.707,1.178c0,0-1.042,1.029-2.741,1.029
			c-2.261,0-3.667-1.631-3.667-3.573C73.854,15.861,75.273,14.39,77.32,14.39z M78.603,17.08c-0.024-0.816-0.587-1.378-1.283-1.378
			c-0.87,0-1.485,0.523-1.672,1.378H78.603z"/>
		<path fill="#AAAAAA" d="M96.966,14.39c1.952,0,3.023,1.432,3.023,3.238c0,0.201-0.041,0.627-0.041,0.627h-4.709
			c0.133,1.207,1.016,1.834,2.046,1.834c1.098,0,1.914-0.762,1.914-0.762l0.71,1.178c0,0-1.044,1.029-2.744,1.029
			c-2.26,0-3.666-1.631-3.666-3.573C93.499,15.861,94.917,14.39,96.966,14.39z M98.25,17.08c-0.027-0.816-0.59-1.378-1.284-1.378
			c-0.87,0-1.485,0.523-1.673,1.378H98.25z"/>
		<path fill="#AAAAAA" d="M124.091,16.291c0-0.201-0.107-0.295-0.293-0.295h-0.534v-1.444h1.563c0.602,0,0.896,0.281,0.896,0.762
			v0.201c0,0.147-0.025,0.294-0.025,0.294h0.025c0.294-0.575,1.03-1.418,2.408-1.418c1.513,0,2.382,0.79,2.382,2.597v2.662
			c0,0.189,0.107,0.295,0.293,0.295h0.536v1.432h-1.619c-0.641,0-0.908-0.268-0.908-0.91v-3.13c0-0.831-0.215-1.391-1.071-1.391
			c-0.91,0-1.591,0.574-1.833,1.391c-0.094,0.279-0.134,0.587-0.134,0.909v3.131h-1.687V16.291z"/>
		<path fill="#AAAAAA" d="M119.086,14.39c2.086,0,3.746,1.485,3.746,3.572c0,2.102-1.66,3.573-3.746,3.573
			c-2.075,0-3.733-1.471-3.733-3.573C115.353,15.875,117.011,14.39,119.086,14.39z M119.086,20.09c1.11,0,2.032-0.855,2.032-2.127
			c0-1.257-0.922-2.126-2.032-2.126c-1.098,0-2.021,0.869-2.021,2.126C117.065,19.234,117.988,20.09,119.086,20.09z"/>
		<path fill="#AAAAAA" d="M114.556,17.962c0,2.114-1.18,3.573-3.027,3.573c-1.472,0-2.046-0.965-2.046-0.965h-0.026
			c0,0,0.026,0.242,0.026,0.59v2.891h-1.698v-7.76c0-0.201-0.107-0.295-0.294-0.295h-0.536v-1.444h1.499
			c0.615,0,0.868,0.253,0.868,0.602c0,0.147,0,0.241,0,0.241h0.028c0,0,0.562-1.003,2.114-1.003
			C113.27,14.39,114.556,15.796,114.556,17.962z M111.142,20.102c1.004,0,1.7-0.84,1.7-2.139c0-1.351-0.791-2.113-1.714-2.113
			c-1.137,0-1.698,1.043-1.698,2.101C109.43,19.463,110.258,20.102,111.142,20.102z"/>
		<path fill="#AAAAAA" d="M101.671,19.207c0,0,0.869,1.002,2.032,1.002c0.523,0,0.924-0.213,0.924-0.666
			c0-0.965-3.599-0.951-3.599-3.159c0-1.365,1.229-1.994,2.649-1.994c0.923,0,2.396,0.308,2.396,1.419v0.709h-1.498v-0.334
			c0-0.323-0.483-0.483-0.858-0.483c-0.6,0-1.016,0.215-1.016,0.617c0,1.07,3.626,0.856,3.626,3.129
			c0,1.285-1.138,2.088-2.624,2.088c-1.872,0-2.835-1.219-2.835-1.219L101.671,19.207z"/>
		<path fill="#AAAAAA" d="M132.745,19.207c0,0,0.869,1.002,2.034,1.002c0.521,0,0.924-0.213,0.924-0.666
			c0-0.965-3.599-0.951-3.599-3.159c0-1.365,1.229-1.994,2.649-1.994c0.922,0,2.392,0.308,2.392,1.419v0.709h-1.498v-0.334
			c0-0.323-0.48-0.483-0.855-0.483c-0.602,0-1.017,0.215-1.017,0.617c0,1.07,3.625,0.856,3.625,3.129
			c0,1.285-1.137,2.088-2.621,2.088c-1.873,0-2.836-1.219-2.836-1.219L132.745,19.207z"/>
		<path fill="#AAAAAA" d="M84.815,19.943c-0.469,0-1.352-0.16-1.352-1.285v-2.755h1.552v-0.628c0-0.5-0.223-0.723-0.723-0.723
			h-0.414h-0.415v-1.86h-1.658v1.86h-0.923v1.352h0.882v2.97c0,2.287,1.887,2.57,2.836,2.57c0.308,0,0.522-0.041,0.522-0.041v-1.486
			C85.123,19.916,85.003,19.943,84.815,19.943z"/>
		<path fill="#AAAAAA" d="M68.85,11.707c2.329,0,3.466,1.205,3.466,1.205l-0.99,1.258c0,0-0.992-0.844-2.436-0.844
			c-1.646,0-3.052,1.299-3.052,3.227c0,2.075,1.417,3.346,3.119,3.346c1.512,0,2.409-0.99,2.409-0.99v-0.711
			c0-0.199-0.107-0.293-0.295-0.293h-0.575v-1.486h1.539c0.641,0,0.91,0.268,0.91,0.896v4.057h-1.5v-0.455
			c0-0.199,0.014-0.402,0.014-0.402h-0.028c0,0-1.016,1.018-2.795,1.018c-2.491,0-4.618-1.9-4.618-4.965
			C64.018,13.834,66.092,11.707,68.85,11.707z"/>
		<path fill="#AAAAAA" d="M86.083,11.868h3.385c1.741,0,2.959,1.072,2.959,2.865c0,1.712-1.178,2.422-1.58,2.504v0.025
			c0,0,0.297,0.134,0.472,0.482l0.922,1.834c0.146,0.281,0.375,0.307,0.669,0.307h0.174v1.486h-0.924
			c-0.709,0-1.016-0.107-1.326-0.709l-1.216-2.396c-0.202-0.375-0.401-0.442-0.896-0.442h-0.886v3.547h-1.752V11.868z
			 M89.229,16.325c0.883,0,1.404-0.549,1.404-1.498c0-0.938-0.521-1.474-1.379-1.474h-1.42v2.972H89.229z"/>
	</g>
	<g>
		<g>
			<path fill="#AAAAAA" d="M57.229,25.57c0,0.713-0.579,1.291-1.292,1.291H28.306c-0.714,0-1.292-0.578-1.292-1.291V8.926
				c0-0.713,0.578-1.293,1.292-1.293h27.631c0.713,0,1.292,0.58,1.292,1.293V25.57z"/>
		</g>
		<path class="svg_keep_color" fill="#f4f4f4" d="M56.937,8.118c-3.562,5.563-9.132,10.646-14.856,10.522c-2.11-0.045-4.506-0.659-6.548-2.32
			c-1.526-1.241-3.048-3.188-3.627-5.941c-0.257,0-0.403,0-0.638,0c-0.928,0-1.48,0.823-1.371,1.579
			c0.023,0.171,0.057,0.372,0.09,0.575c0.435,2.696,2.04,5.726,4.702,7.685c2.067,1.521,4.637,2.531,7.431,2.523
			c5.028-0.016,10.419-3.197,15.108-11.439V8.926C57.229,8.619,57.118,8.34,56.937,8.118z"/>
	</g>
</g>
</svg>
