<svg xmlns="http://www.w3.org/2000/svg" width="170" height="35" viewBox="0 0 170 35"><style>.a{fill:#AAA;}</style><path d="M41 18.3c-1.8 0-3.2 0.7-4.2 2.1 -0.7-1.3-2.1-2.1-3.6-2.1 -1.4 0-2.8 0.6-3.7 1.7v-0.2c0-0.7-0.6-1.3-1.3-1.3 -0.7 0-1.3 0.6-1.3 1.3v9.9c0 0.7 0.6 1.3 1.3 1.2 0.7 0 1.2-0.6 1.2-1.2v-6.8c0.6-1 1.5-2 3.1-2 1.5 0 2.1 0.7 2.1 2.7V29.6c0 0.7 0.6 1.3 1.3 1.2 0.7 0 1.2-0.6 1.2-1.2v-6.8c0.6-1 1.5-2 3.1-2 1.5 0 2.1 0.7 2.1 2.7V29.6c0 0.7 0.6 1.3 1.3 1.2 0.7 0 1.2-0.6 1.2-1.2v-6.6C45 20.7 43.8 18.3 41 18.3z" class="a"/><path d="M53.3 18.3c-1.4 0-2.8 0.3-4.1 0.8 -0.5 0.2-0.8 0.6-0.7 1.1 0 0.6 0.5 1.1 1.1 1.1 0 0 0 0 0 0 0.1 0 0.3 0 0.4-0.1 1-0.3 2-0.5 3-0.5 2 0 2.8 0.7 2.8 2.5h-2.5c-3.5 0-5.5 1.5-5.5 4 0 2.4 2 3.7 4 3.7 1.5 0 2.9-0.5 4.1-1.4V29.6c0 0.7 0.6 1.3 1.3 1.2 0.7 0 1.2-0.6 1.2-1.2v-6.5C58.3 20.7 56.8 18.3 53.3 18.3zM52.5 28.7c-1.5 0-2.2-0.5-2.2-1.6 0-0.4 0-1.6 3.2-1.6h2.3v1.6C55.1 27.8 53.8 28.7 52.5 28.7z" class="a"/><path d="M63.2 13.7h0.1c0.8 0 1.4 0.6 1.4 1.4v0.1c0 0.8-0.6 1.4-1.4 1.4h-0.1c-0.8 0-1.4-0.6-1.4-1.4v-0.1C61.8 14.3 62.5 13.7 63.2 13.7z" class="a"/><path d="M63.3 18.4c-0.7 0-1.3 0.6-1.3 1.3 0 0 0 0 0 0v9.9c0 0.7 0.6 1.3 1.3 1.2 0.7 0 1.2-0.6 1.2-1.2v-9.9c0-0.7-0.6-1.3-1.3-1.3C63.3 18.4 63.3 18.4 63.3 18.4z" class="a"/><path d="M69.8 13.4c-0.7 0-1.3 0.6-1.3 1.3 0 0 0 0 0 0v14.9c0 0.7 0.6 1.3 1.3 1.2 0.7 0 1.2-0.6 1.2-1.2v-14.9c0-0.7-0.6-1.3-1.3-1.3C69.8 13.4 69.8 13.4 69.8 13.4z" class="a"/><path d="M80 18.3c-1.8 0-3.4 0.7-4.4 2 -0.9 1.1-1.4 2.7-1.4 4.4 0 4 2.3 6.3 6.2 6.3 2.1 0 3.2-0.5 4.1-1 0.4-0.2 0.7-0.6 0.7-1.1 0-0.6-0.5-1.1-1.1-1.1 0 0 0 0 0 0 -0.2 0-0.4 0-0.5 0.1 -0.9 0.5-2 0.7-3 0.7 -2.1 0-3.4-1-3.7-2.9h7.5c0.7 0 1.3-0.5 1.3-1.2 0 0 0-0.1 0-0.1C85.8 20.2 82.8 18.3 80 18.3zM80 20.6c1.1 0 2.9 0.6 3.1 2.9h-6.3C77.2 21.5 78.6 20.6 80 20.6z" class="a"/><path d="M94.7 18.3h-0.1c-1.2 0-2.4 0.6-3.4 1.7v-0.3c0-0.7-0.6-1.3-1.3-1.3 -0.7 0-1.3 0.6-1.3 1.3v9.9c0 0.7 0.6 1.3 1.3 1.2 0.7 0 1.2-0.6 1.2-1.2v-6.9c0.8-1.2 2-1.9 3.3-1.9h0.1c0.7 0 1.3-0.5 1.3-1.1 0 0 0-0.1 0-0.1 0-0.7-0.5-1.3-1.2-1.3C94.7 18.3 94.7 18.3 94.7 18.3z" class="a"/><path d="M130.3 4h-26c-2 0-3.7 1.6-3.7 3.7v23.3l5.1-5h24.7c2 0 3.7-1.6 3.7-3.7V7.7C134 5.6 132.4 4 130.3 4zM108.4 20.5c0 0.5-0.4 1-1 1 -0.5 0-1-0.4-1-1V10.1c0-0.5 0.4-1 1-1 0.5 0 1 0.4 1 1V20.5zM113 20.5c0 0.5-0.4 1-1 1 -0.5 0-1-0.4-1-1v-6.9c0-0.5 0.4-1 1-1 0.5 0 1 0.4 1 1V20.5zM113.1 10.4c0 0.6-0.5 1.1-1.1 1.1h-0.1c-0.6 0-1.1-0.5-1.1-1.1v-0.1c0-0.6 0.5-1.1 1.1-1.1h0.1c0.6 0 1.1 0.5 1.1 1.1V10.4zM120 21.2c-0.4 0.2-0.9 0.3-1.4 0.3 -1.7 0-2.6-0.8-2.6-2.4v-4.7h-0.9c-0.3 0-0.5-0.2-0.6-0.5 0 0 0 0 0 0 0-0.2 0.1-0.3 0.2-0.5l2.2-2.1c0.1-0.1 0.3-0.2 0.4-0.2 0.3 0 0.6 0.2 0.6 0.5 0 0 0 0 0 0v1h1.6c0.5 0 0.9 0.4 0.9 0.9 0 0.5-0.4 0.9-0.9 0.9l0 0h-1.6v4.6c0 0.7 0.3 0.7 0.8 0.7 0.2 0 0.4 0 0.6-0.1 0.1 0 0.3-0.1 0.4-0.1 0.5 0 0.8 0.4 0.8 0.8C120.5 20.7 120.3 21.1 120 21.2zM126 19.7c0.7 0 1.4-0.1 2.1-0.5 0.1-0.1 0.3-0.1 0.4-0.1 0.5 0 0.9 0.4 0.9 0.9 0 0 0 0 0 0 0 0.3-0.2 0.7-0.5 0.8 -0.7 0.4-1.4 0.7-2.9 0.7 -2.8 0-4.4-1.7-4.4-4.5 0-3.3 2.2-4.5 4.1-4.5 2.8 0 4.1 2.2 4.1 4.3 0 0.5-0.4 1-0.9 1 0 0 0 0-0.1 0h-5.1C123.7 19 124.6 19.7 126 19.7z" class="a"/><path d="M125.6 14.2c-1.1 0-2 0.8-2.1 1.9h4.2C127.6 15 126.6 14.2 125.6 14.2z" class="a"/></svg>
