<?xml version="1.0" encoding="utf-8"?>
<!-- Generator: Adobe Illustrator 16.0.0, SVG Export Plug-In . SVG Version: 6.00 Build 0)  -->
<!DOCTYPE svg PUBLIC "-//W3C//DTD SVG 1.1//EN" "http://www.w3.org/Graphics/SVG/1.1/DTD/svg11.dtd">
<svg version="1.1" id="Layer_1" xmlns="http://www.w3.org/2000/svg" xmlns:xlink="http://www.w3.org/1999/xlink" x="0px" y="0px"
	 width="100px" height="50px" viewBox="0 0 100 50" enable-background="new 0 0 100 50" xml:space="preserve">
<g id="g15">
	<path id="path21" fill="#AAAAAA" d="M92.915,18.983h-0.22l-0.22,0.606c-0.028,0.082-0.054,0.181-0.08,0.286h-0.004
		c-0.029-0.104-0.052-0.198-0.08-0.282l-0.221-0.609h-0.223l-0.087,1.123h0.163l0.044-0.677c0.004-0.102,0.002-0.198,0.004-0.306
		h0.01c0.023,0.105,0.054,0.215,0.082,0.306l0.228,0.663h0.13l0.234-0.646c0.033-0.099,0.068-0.218,0.096-0.323h0.01
		c0.002,0.111-0.003,0.218,0.002,0.306l0.044,0.677H93L92.915,18.983z M90.888,19.126h0.341v0.979h0.169v-0.979h0.345v-0.143h-0.854
		V19.126z M31.005,42.283c-9.544,0-17.283-7.738-17.283-17.282c0-9.544,7.738-17.283,17.283-17.283c4.12,0,7.902,1.443,10.871,3.849
		l-3.959,3.959l12.529,0.13L50.279,3.165l-3.634,3.633c-4.201-3.614-9.665-5.802-15.641-5.802C17.747,0.996,7,11.744,7,25
		c0,13.257,10.747,24.003,24.004,24.003c8.21,0,15.459-4.123,19.788-10.412L45.031,35.1C41.892,39.449,36.779,42.283,31.005,42.283
		 M86.071,27.561l1.13-6.305l1.199,6.305H86.071z M86.454,18.98l-2.641,12.264h1.583l0.416-2.363h2.849l0.434,2.363h1.599
		L87.982,18.98H86.454z M81.053,24.19h-2.798v-5.21h-1.527v12.264h1.527v-5.715h2.798v5.715h1.527V18.98h-1.527V24.19z
		 M73.357,28.967c-0.052,0.229-0.209,1.164-1.304,1.164c-1.215,0-1.373-0.918-1.424-1.145c-0.07-0.488-0.105-2.971-0.105-3.719
		c0-0.938,0-2.796,0.105-3.682c0.051-0.47,0.156-1.511,1.46-1.511c1.251,0,1.268,1.007,1.268,1.841v0.921h1.426
		c0.015-0.956,0.015-1.685-0.122-2.276c-0.313-1.337-1.566-1.771-2.571-1.771c-2.519,0-2.833,1.771-2.938,2.311
		c-0.085,0.538-0.14,0.921-0.14,4.151c0,3.059,0.071,3.578,0.123,3.926c0.191,1.129,0.956,2.24,2.833,2.24
		c2.204,0,2.604-1.23,2.759-1.945c0.104-0.469,0.122-0.902,0.122-2.554h-1.423C73.427,28.377,73.427,28.654,73.357,28.967
		 M62.062,20.351h2.329v10.894h1.511V20.351h2.327V18.98h-6.167V20.351z M59.457,24.591c-0.329,0.243-0.712,0.278-1.392,0.278
		h-1.023v-4.5c1.58,0,1.93,0,2.312,0.261c0.504,0.33,0.555,0.868,0.555,2.189C59.908,23.756,59.908,24.243,59.457,24.591
		 M58.032,18.962h-2.501v12.282h1.511v-5.021c1.98,0,2.329,0,2.918-0.226c1.182-0.434,1.46-1.633,1.46-3.3
		c0-1.269,0-1.998-0.557-2.763C60.239,19.05,59.388,18.962,58.032,18.962 M49.66,27.561l1.128-6.305l1.2,6.305H49.66z M50.041,18.98
		l-2.639,12.264h1.581l0.416-2.363h2.848l0.437,2.363h1.597L51.57,18.98H50.041z M46.325,22.836
		c0.017-0.956,0.017-1.685-0.122-2.276c-0.312-1.337-1.563-1.771-2.57-1.771c-2.519,0-2.833,1.771-2.937,2.311
		c-0.086,0.538-0.139,0.921-0.139,4.151c0,3.059,0.069,3.578,0.122,3.926c0.191,1.129,0.955,2.24,2.831,2.24
		c2.207,0,2.606-1.23,2.763-1.945c0.104-0.469,0.121-0.902,0.121-2.554h-1.425c0,1.46,0,1.737-0.069,2.05
		c-0.052,0.229-0.208,1.164-1.303,1.164c-1.216,0-1.371-0.918-1.424-1.145c-0.07-0.488-0.104-2.971-0.104-3.719
		c0-0.938,0-2.796,0.104-3.682c0.053-0.47,0.156-1.511,1.459-1.511c1.251,0,1.268,1.007,1.268,1.841v0.921H46.325z M33.115,24.23
		c0.066-0.291,0.132-0.608,0.41-0.912c0.199-0.212,0.542-0.449,1.032-0.449c0.357,0,0.741,0.131,0.991,0.383
		c0.291,0.304,0.343,0.688,0.383,0.979H33.115z M37.055,22.406c-0.886-0.952-2.076-0.992-2.485-0.992
		c-2.724,0-3.543,2.142-3.543,3.808c0,2.261,1.441,3.569,3.489,3.569c1.111,0,2.01-0.424,2.604-0.979
		c0.357-0.33,0.595-0.674,0.833-1.031l-1.533-0.778c-0.251,0.487-0.635,1.216-1.745,1.216c-1.097,0-1.585-0.859-1.573-1.718h4.931
		C38.006,24.72,37.953,23.372,37.055,22.406 M27.155,24.625h-0.924v-1.64h0.914c0.387,0,1.083,0.02,1.083,0.825
		C28.228,24.604,27.523,24.625,27.155,24.625 M30.444,23.76c0-0.676-0.279-1.63-1.211-2.027c-0.429-0.179-1.064-0.219-1.73-0.219
		h-3.5v7.027h2.228v-2.476h0.656l1.361,2.476h2.466l-1.71-2.834c0.328-0.128,0.626-0.237,0.904-0.535
		C30.415,24.655,30.444,24.028,30.444,23.76"/>
</g>
</svg>
